<?xml version="1.0" encoding="utf-8"?>
<!-- Generator: Adobe Illustrator 24.1.1, SVG Export Plug-In . SVG Version: 6.00 Build 0)  -->
<svg version="1.1" id="Layer_1" xmlns="http://www.w3.org/2000/svg" xmlns:xlink="http://www.w3.org/1999/xlink" x="0px" y="0px"
	 viewBox="0 0 512 512" style="enable-background:new 0 0 512 512;" xml:space="preserve">
<style type="text/css">
	.st0{fill-rule:evenodd;clip-rule:evenodd;}
</style>
<g>
	<path class="st0" d="M78.6,35.5c-9.8,0-17.7,7.9-17.7,17.7v392.5l141.9-94.6l141.9,94.6V266c0-9.8,7.9-17.7,17.7-17.7
		c9.8,0,17.7,7.9,17.7,17.7v246L202.8,393.8L25.4,512V53.2C25.4,23.8,49.3,0,78.6,0h141.9c9.8,0,17.7,7.9,17.7,17.7
		s-7.9,17.7-17.7,17.7H78.6z M397.9,0c9.8,0,17.7,7.9,17.7,17.7v70.9c0,9.8-7.9,17.7-17.7,17.7h-70.9c-9.8,0-17.7-7.9-17.7-17.7
		s7.9-17.7,17.7-17.7h53.2V17.7C380.2,7.9,388.1,0,397.9,0z"/>
	<path class="st0" d="M380.2,88.7c0-9.8,7.9-17.7,17.7-17.7h70.9c9.8,0,17.7,7.9,17.7,17.7s-7.9,17.7-17.7,17.7h-53.2v53.2
		c0,9.8-7.9,17.7-17.7,17.7s-17.7-7.9-17.7-17.7V88.7z"/>
</g>
</svg>
